<svg xmlns="http://www.w3.org/2000/svg" viewBox="0 0 512 512">
  <path d="M256 0A231 231 0 0026 230v69c0 117 103 213 230 213s230-96 230-213v-69C486 103 383 0 256 0zM77 375v30c-18-25-29-54-33-84 8 19 20 38 33 54zm42 74l-25-23v-32l25 22v33zm43 26l-26-14h1v-34l25 14v34zm43 14l-26-7v-34l26 7v34zm42 6c-8-1-17-1-25-3v-34c8 2 17 2 25 3v34zm43-3c-8 2-17 2-25 3v-34c8-1 17-1 25-3v34zm43-10l-26 7v-34l26-7v34zm17-7v-34l25-14v34h1l-26 14zm68-49l-25 23v-33l25-22v32zm17-21v-30c13-16 25-35 33-54-4 30-15 59-33 84zm-179 38a213 213 0 110-426 213 213 0 010 426z"/>
  <path d="M256 53a177 177 0 100 355 177 177 0 000-355zm0 337a160 160 0 110-319 160 160 0 010 319z"/>
  <path d="M265 224v-67c30 1 41 10 46 17 3 4 8 4 12 1s4-8 2-12c-12-15-31-22-60-23v-13a9 9 0 10-18 0v13c-37 3-57 27-58 49 0 22 18 45 58 49v66c-26-1-35-5-47-18a9 9 0 10-12 12c16 17 30 22 59 23v13a9 9 0 1018 0v-13c34-3 60-21 62-44 0-9-2-40-62-53zm-18-3c-28-4-41-18-41-31 1-15 15-30 41-33v64zm63 54c-1 13-18 26-45 29v-63c34 9 46 24 45 34z"/>
</svg>