<svg height="512pt" viewBox="-55 0 512 512" width="512pt" xmlns="http://www.w3.org/2000/svg"><path d="M394.223 167.438H350.71c-4.14 0-7.5 3.359-7.5 7.5s3.36 7.5 7.5 7.5h43.512c4.14 0 7.5-3.36 7.5-7.5s-3.36-7.5-7.5-7.5zm0 0M350.71 121.652h19.755a7.5 7.5 0 007.5-7.5c0-4.144-3.356-7.5-7.5-7.5H350.71a7.5 7.5 0 100 15zm0 0M350.71 60.863h26.759a7.5 7.5 0 100-15H350.71a7.5 7.5 0 100 15zm0 0M377.469 289.012H350.71a7.5 7.5 0 100 15h26.758a7.5 7.5 0 100-15zm0 0M350.71 243.223h19.755c4.144 0 7.5-3.356 7.5-7.5a7.5 7.5 0 00-7.5-7.5H350.71a7.5 7.5 0 100 15zm0 0M127.11 162.809c12.406 6.625 13.152 8.125 16.453 8.125 7.718 0 10.378-10.29 3.671-14.047l-12.8-7.164 9.414-3.856a7.503 7.503 0 004.097-9.785 7.502 7.502 0 00-9.78-4.098l-20.45 8.375-26.828-15.023 26.828-15.024c21.027 8.415 20.707 8.938 23.289 8.938 8.191 0 10.426-11.336 2.844-14.441l-9.41-3.856 12.796-7.168a7.5 7.5 0 10-7.328-13.086l-12.797 7.164 1.633-10.039a7.502 7.502 0 00-14.808-2.406l-3.543 21.809-27.356 15.316V81.191l17.297-13.746a7.505 7.505 0 001.207-10.539A7.5 7.5 0 0091 55.703l-7.965 6.328V47.363a7.5 7.5 0 10-15 0v14.668l-7.96-6.328a7.498 7.498 0 00-10.54 1.207 7.493 7.493 0 001.207 10.535l17.293 13.75v31.348L40.684 97.227l-3.547-21.809a7.497 7.497 0 00-8.606-6.2 7.502 7.502 0 00-6.199 8.606l1.633 10.04-12.8-7.165a7.5 7.5 0 00-7.33 13.086l12.802 7.168-9.414 3.856c-3.832 1.57-5.664 5.949-4.098 9.785a7.506 7.506 0 009.785 4.097l20.445-8.375 26.829 15.024-26.829 15.02-20.445-8.376a7.504 7.504 0 00-9.785 4.102 7.499 7.499 0 004.098 9.781l9.414 3.856-12.801 7.168c-6.707 3.754-4.043 14.043 3.672 14.043 3.3 0 4.054-1.504 16.457-8.125l-1.633 10.043c-.742 4.562 2.781 8.703 7.414 8.703a7.501 7.501 0 007.39-6.297l3.548-21.809 27.351-15.316v31.347l-17.293 13.75a7.493 7.493 0 00-1.207 10.536 7.498 7.498 0 0010.54 1.207l7.96-6.328v14.667a7.5 7.5 0 1015 0v-14.667c6.926 5.015 8.418 7.957 12.625 7.957 7.07-.004 10.23-8.957 4.672-13.372l-17.297-13.75v-31.347l27.356 15.316 3.543 21.809a7.502 7.502 0 007.394 6.297c4.64 0 8.152-4.153 7.414-8.703zm0 0"/><path d="M318.148 309.805V67.84c0-37.406-30.43-67.84-67.836-67.84s-67.84 30.434-67.84 67.84v241.965c-28.023 21.226-44.636 54.468-44.636 89.718 0 62.02 50.457 112.477 112.476 112.477S362.79 461.543 362.79 399.523c0-35.25-16.613-68.492-44.64-89.718zM250.312 497c-53.75 0-97.476-43.727-97.476-97.477 0-31.687 15.496-61.511 41.453-79.773a7.507 7.507 0 003.184-6.137V67.84c0-29.137 23.703-52.84 52.84-52.84 29.132 0 52.835 23.703 52.835 52.84v245.773a7.507 7.507 0 003.184 6.137c25.961 18.266 41.457 48.086 41.457 79.773 0 53.75-43.73 97.477-97.477 97.477zm0 0"/><path d="M283.14 324.668V67.84c0-18.106-14.726-32.832-32.827-32.832S217.48 49.734 217.48 67.84v23.223a7.5 7.5 0 1015 0V67.84c0-9.832 8-17.832 17.833-17.832s17.828 8 17.828 17.832v222.254h-35.66V121.133c0-4.145-3.356-7.5-7.5-7.5a7.5 7.5 0 00-7.5 7.5v203.535c-28.418 12.809-47.168 41.484-47.168 72.95 0 44.112 35.886 80 79.996 80 44.113 0 80-35.888 80-80 .003-31.466-18.75-60.141-47.168-72.95zm-32.827 137.95c-35.844 0-65-29.157-65-65 0-27 16.992-51.477 42.289-60.9a7.506 7.506 0 004.882-7.027v-24.597h35.657v24.597a7.506 7.506 0 004.882 7.028c25.297 9.422 42.29 33.894 42.29 60.898 0 35.844-29.16 65-65 65zm0 0"/></svg>